<?xml version="1.0" standalone="no"?>
<!DOCTYPE svg PUBLIC "-//W3C//DTD SVG 20010904//EN"
 "http://www.w3.org/TR/2001/REC-SVG-20010904/DTD/svg10.dtd">
<svg version="1.0" xmlns="http://www.w3.org/2000/svg"
 width="450.000000pt" height="450.000000pt" viewBox="0 0 450.000000 450.000000"
 preserveAspectRatio="xMidYMid meet">
<metadata>
Created by potrace 1.11, written by Peter Selinger 2001-2013
</metadata>
<g transform="translate(0.000000,450.000000) scale(0.100000,-0.100000)"
fill="#000000" stroke="none">
<path d="M880 4130 c-14 -4 -41 -8 -61 -9 -105 -3 -349 -99 -349 -137 0 -7 13
-23 29 -36 38 -30 121 -133 121 -150 0 -8 -3 -9 -8 -3 -4 6 -15 16 -24 23 -14
11 -16 11 -11 -7 3 -13 1 -21 -7 -21 -14 0 -56 50 -53 62 2 4 -8 10 -22 14
-29 7 -75 -18 -75 -41 0 -8 -11 -22 -25 -31 -19 -13 -23 -22 -19 -41 5 -19 2
-25 -13 -29 -15 -4 -18 -12 -15 -33 3 -21 -2 -29 -22 -39 -14 -6 -32 -9 -39
-6 -10 3 -21 -15 -37 -63 -12 -37 -26 -72 -30 -78 -4 -5 -11 -30 -15 -55 -4
-25 -13 -58 -21 -75 -15 -34 -21 -179 -11 -270 7 -56 12 -81 54 -237 18 -70
73 -195 106 -242 139 -198 330 -367 460 -408 33 -10 65 -25 71 -33 12 -16 123
-85 136 -85 5 0 55 -20 112 -44 57 -25 135 -54 173 -64 39 -11 86 -29 105 -40
47 -28 111 -51 190 -68 36 -8 101 -32 145 -53 44 -21 100 -49 125 -60 25 -12
63 -33 85 -46 22 -14 51 -30 65 -37 49 -25 95 -60 107 -81 6 -13 9 -43 6 -74
-3 -29 -1 -58 4 -65 13 -17 -11 -315 -32 -388 -8 -30 -27 -89 -40 -130 -14
-41 -25 -86 -25 -100 -1 -14 -7 -36 -15 -50 -8 -14 -14 -33 -15 -43 0 -10 -32
-85 -70 -166 -39 -81 -70 -151 -70 -155 0 -5 -11 -24 -25 -42 -14 -18 -25 -36
-25 -39 0 -4 -7 -14 -16 -23 -15 -15 -14 -17 17 -28 43 -16 52 -16 44 -4 -3 5
-1 10 4 10 6 0 11 7 11 16 0 9 14 32 30 51 29 33 73 111 115 203 27 61 105
159 190 239 38 36 88 84 110 106 83 81 129 117 194 149 36 18 93 46 126 64 56
29 86 41 175 72 19 7 56 20 81 30 41 15 50 16 80 3 19 -8 50 -29 69 -48 37
-36 202 -119 285 -142 240 -68 516 -43 741 67 81 39 114 62 168 118 37 38 73
78 79 89 72 124 79 169 47 288 -22 83 -85 208 -120 240 -11 10 -20 24 -20 31
0 21 -130 146 -190 183 -78 48 -157 77 -300 113 -101 25 -145 31 -230 31 -150
-1 -262 -18 -307 -49 -20 -13 -48 -27 -62 -31 -14 -3 -63 -24 -109 -45 -65
-31 -88 -47 -107 -79 -14 -21 -30 -39 -35 -39 -11 0 -200 -185 -200 -196 0 -3
-18 -24 -40 -45 -25 -25 -58 -76 -89 -142 -27 -57 -56 -109 -65 -116 -9 -7
-16 -18 -16 -24 0 -5 -13 -37 -29 -71 -15 -34 -32 -72 -36 -86 -7 -26 -22 -63
-46 -115 -7 -16 -14 -34 -14 -40 -1 -5 -9 -27 -18 -49 -9 -21 -17 -45 -17 -52
0 -8 -4 -14 -9 -14 -8 0 -89 -71 -143 -126 -15 -15 -29 -26 -32 -23 -2 2 11
50 29 105 18 56 38 144 44 195 7 52 16 123 22 159 12 73 8 132 -11 155 -9 11
-9 19 -2 28 11 13 8 62 -8 111 -19 55 -11 101 26 168 19 34 43 71 51 81 9 9
21 26 27 36 6 11 36 52 67 93 31 40 68 92 83 116 14 23 30 42 35 42 5 0 25 25
46 55 20 30 40 55 46 55 5 0 9 6 9 13 0 10 51 94 160 262 10 17 29 41 40 54
86 98 137 390 104 591 -16 93 -30 134 -76 215 -13 22 -24 47 -26 55 -2 8 -8
17 -13 18 -5 2 -16 17 -24 33 -9 16 -30 35 -48 43 -20 8 -51 39 -81 79 -67 91
-141 145 -211 153 -54 7 -55 6 -55 -19 0 -30 -16 -43 -34 -28 -39 32 -287 74
-301 51 -3 -5 -18 -7 -34 -4 -20 4 -30 1 -34 -10 -4 -9 -15 -16 -26 -16 -10 0
-26 -11 -35 -25 -13 -20 -25 -25 -56 -25 -29 0 -42 -5 -50 -21 -13 -24 -5 -73
15 -89 11 -9 12 -17 5 -31 -6 -10 -8 -31 -5 -46 3 -16 -12 7 -35 50 -26 49
-50 82 -65 89 -35 16 -31 24 18 48 129 64 149 92 86 122 -20 9 -49 30 -65 46
-16 15 -60 45 -99 66 -38 21 -92 53 -120 71 -27 17 -70 38 -95 45 -25 8 -55
20 -67 28 -59 37 -396 67 -473 42z"/>
<path d="M2226 3815 c-7 -20 23 -32 35 -14 13 21 11 29 -10 29 -10 0 -22 -7
-25 -15z"/>
<path d="M2314 3776 c-8 -22 3 -33 18 -18 9 9 9 15 0 24 -9 9 -13 7 -18 -6z"/>
<path d="M2211 1604 c0 -11 3 -14 6 -6 3 7 2 16 -1 19 -3 4 -6 -2 -5 -13z"/>
<path d="M2231 1404 c0 -11 3 -14 6 -6 3 7 2 16 -1 19 -3 4 -6 -2 -5 -13z"/>
<path d="M2220 1319 c0 -5 5 -7 10 -4 6 3 10 8 10 11 0 2 -4 4 -10 4 -5 0 -10
-5 -10 -11z"/>
</g>
</svg>
